# xmcd CD database file
#
# Track frame offsets:
#	150
#	25511
#	56141
#	107530
#	154333
#	209337
#
# Disc length: 3630 seconds
#
# Revision: 0
# Processed by: cddbd v1.5.2PL0 Copyright (c) Steve Scherf et al.
# Submitted via: CDex 1.51
#
DISCID=480e2c06
DTITLE=Solar Flair with Larry Reed - Live! At the Mountain View Center for the Performing Arts
DYEAR=1993
DGENRE=Jazz
TTITLE0=Cordova, Cordova
TTITLE1=Funk It
TTITLE2=Night Flight
TTITLE3=Playa del Guano
TTITLE4=Melancholy, Maybe
TTITLE5=Echo Dance
EXTD=YEAR: 1993
EXTT0=
EXTT1=
EXTT2=
EXTT3=
EXTT4=
EXTT5=
PLAYORDER=
